<svg width="64" height="64" viewBox="0 0 64 64" fill="none" xmlns="http://www.w3.org/2000/svg">
<path d="M57.3333 32.6667C57.3333 39.2933 54.7333 45.3067 50.4667 49.72C46 54.4133 39.6667 57.3333 32.6667 57.3333C25.6667 57.3333 19.3333 54.4133 14.8667 49.72C10.6 45.3067 8 39.2933 8 32.6667C8 19.04 19.04 8 32.6667 8C46.2933 8 57.3333 19.04 57.3333 32.6667Z" stroke="white" stroke-width="4" stroke-miterlimit="10"/>
<path d="M32.6667 30.6667C37.4531 30.6667 41.3333 26.7865 41.3333 22C41.3333 17.2136 37.4531 13.3334 32.6667 13.3334C27.8802 13.3334 24 17.2136 24 22C24 26.7865 27.8802 30.6667 32.6667 30.6667Z" stroke="white" stroke-width="4" stroke-miterlimit="10"/>
<path d="M50.4667 49.72C46 54.4133 39.6667 57.3333 32.6667 57.3333C25.6667 57.3333 19.3334 54.4133 14.8667 49.72C17.24 42.1466 24.32 36.6666 32.6667 36.6666C41.0134 36.6666 48.0934 42.1466 50.4667 49.72Z" stroke="white" stroke-width="4" stroke-miterlimit="10"/>
</svg>
