<svg width="65" height="64" viewBox="0 0 65 64" fill="none" xmlns="http://www.w3.org/2000/svg">
<path d="M53.0467 43.6134L49.3 41.84L49.34 27.4667C49.34 20.3467 44.8733 14.2667 38.5933 11.8534V11.2C38.58 7.96004 35.86 5.33337 32.5 5.33337C29.14 5.33337 26.42 7.96004 26.42 11.2V11.9067C20.2333 14.3734 15.8333 20.4134 15.8333 27.4667L15.7933 41.84L11.9667 43.6C10.6867 44.0934 9.83333 45.3334 9.83333 46.7067V50.1467C9.83333 51.9867 11.3267 53.48 13.1667 53.48H25.82C26.4733 56.56 29.22 58.8934 32.5 58.8934C35.78 58.8934 38.5267 56.5734 39.18 53.48H51.8333C53.6733 53.48 55.1667 51.9867 55.1667 50.1467V46.7067C55.1667 45.3334 54.3133 44.1067 53.0467 43.6134ZM32.5 9.33337C33.42 9.33337 34.1933 9.86671 34.4733 10.6C33.9267 10.5334 33.38 10.5067 32.8467 10.4934C32.0867 10.4934 31.3133 10.52 30.54 10.6C30.8067 9.86671 31.58 9.33337 32.5 9.33337ZM32.5 54.8934C31.46 54.8934 30.5533 54.32 30.06 53.48H34.94C34.4467 54.32 33.54 54.8934 32.5 54.8934ZM51.1667 49.48H13.8333V47.1467L17.66 45.3734C18.94 44.88 19.7933 43.6534 19.7933 42.2667L19.8333 27.4667C19.8333 20.44 25.5533 14.72 32.58 14.72C39.6067 14.72 45.3267 20.44 45.3267 27.4667L45.2867 42.2667C45.2867 43.6534 46.1267 44.88 47.4067 45.3867L51.1667 47.1467V49.48Z" fill="white"/>
<path d="M31.1667 18.0533C26.2067 18.0533 22.18 22.08 22.18 27.04C22.18 28.1467 23.0734 29.04 24.18 29.04C25.2867 29.04 26.18 28.1467 26.18 27.04C26.18 24.2933 28.42 22.0533 31.1667 22.0533C32.2734 22.0533 33.1667 21.16 33.1667 20.0533C33.1667 18.9467 32.2734 18.0533 31.1667 18.0533Z" fill="white"/>
</svg>
