<svg width="89" height="88" viewBox="0 0 89 88" fill="none" xmlns="http://www.w3.org/2000/svg">
<path d="M55.67 7.33331H8.00336V55H55.67V7.33331Z" fill="#B5C5C3"/>
<path d="M39.17 16.5C23.99 16.5 11.67 27.995 11.67 42.1667C11.67 48.0517 13.815 53.46 17.3717 57.7867L11.67 66.9167L24.32 63.745C28.61 66.33 33.7067 67.8333 39.17 67.8333C54.35 67.8333 66.67 56.3383 66.67 42.1667C66.67 27.995 54.35 16.5 39.17 16.5Z" fill="#33404F"/>
<path d="M81.3367 55C81.3367 45.1367 75.3783 36.5933 66.6517 32.3033C67.9167 35.365 68.6317 38.6833 68.6317 42.1667C68.6317 57.3467 55.4317 69.6667 39.17 69.6667C36.1267 69.6667 33.1933 69.2267 30.425 68.42C35.265 75.7533 43.9183 80.6667 53.8367 80.6667C59.3 80.6667 64.3967 79.1633 68.6867 76.5783L81.3367 79.75L75.635 70.62C79.1917 66.2933 81.3367 60.885 81.3367 55Z" fill="#33404F"/>
<path d="M45.1833 41.1583L42.3967 44.11C41.7 44.8616 41.315 45.6316 41.315 46.53V48.6566H36.3283V46.09C36.3283 44.8983 36.9333 43.78 37.795 42.8816L40.5633 39.93C41.6083 38.8483 41.7917 37.9133 41.7917 36.465C41.7917 35.1633 41.6083 34.265 40.8567 33.5866C40.3433 33.1466 39.72 32.8716 38.84 32.8716C37.9967 32.8716 37.3367 33.0916 36.8233 33.55C35.98 34.3016 35.925 35.42 35.925 36.465H30.92C30.92 34.2283 31.4883 32.3216 33.1383 31.0933C34.4583 30.1216 36.255 29.3333 38.785 29.3333C41.2783 29.3333 43.2033 29.9383 44.5233 31.02C46.1733 32.3216 46.7783 33.9716 46.7783 36.575C46.7783 38.6283 46.32 39.9666 45.1833 41.1583ZM35.9067 56.1183V51.535H41.7367V56.1183H35.9067Z" fill="white"/>
</svg>
