<svg width="64" height="64" viewBox="0 0 64 64" fill="none" xmlns="http://www.w3.org/2000/svg">
<path d="M26.6667 29.3333H13.3333C11.8667 29.3333 10.6667 28.1333 10.6667 26.6666V13.3333C10.6667 11.8666 11.8667 10.6666 13.3333 10.6666H26.6667C28.1333 10.6666 29.3333 11.8666 29.3333 13.3333V26.6666C29.3333 28.1333 28.1333 29.3333 26.6667 29.3333Z" stroke="white" stroke-width="4" stroke-miterlimit="10"/>
<path d="M26.6667 54.6399H13.3333C11.8667 54.6399 10.6667 53.4399 10.6667 51.9733V38.6399C10.6667 37.1733 11.8667 35.9733 13.3333 35.9733H26.6667C28.1333 35.9733 29.3333 37.1733 29.3333 38.6399V51.9733C29.3333 53.4399 28.1333 54.6399 26.6667 54.6399Z" stroke="white" stroke-width="4" stroke-miterlimit="10"/>
<path d="M52 29.3333H38.6667C37.2 29.3333 36 28.1333 36 26.6666V13.3333C36 11.8666 37.2 10.6666 38.6667 10.6666H52C53.4667 10.6666 54.6667 11.8666 54.6667 13.3333V26.6666C54.6667 28.1333 53.4667 29.3333 52 29.3333Z" stroke="white" stroke-width="4" stroke-miterlimit="10"/>
<path d="M45.3333 54.6399C40.1733 54.6399 36 50.4666 36 45.3066C36 40.1466 40.1733 35.9733 45.3333 35.9733C50.4933 35.9733 54.6667 40.1466 54.6667 45.3066C54.6667 50.4666 50.4933 54.6399 45.3333 54.6399Z" stroke="white" stroke-width="4" stroke-miterlimit="10"/>
</svg>
