<svg width="74" height="46" viewBox="0 0 74 46" fill="none" xmlns="http://www.w3.org/2000/svg">
<path d="M36.2496 39.6862C32.4296 42.7586 27.5791 44.5943 22.2971 44.5943C9.98387 44.5943 0 34.6104 0 22.2971C0 9.98387 9.98387 0 22.2971 0C28.1207 0 33.417 2.23355 37.3856 5.88583C32.3002 9.96949 29.0457 16.2436 29.0457 23.2749C29.0457 29.7695 31.8209 35.6122 36.2496 39.6862Z" fill="white"/>
<path d="M44.5943 22.2971C44.5943 29.3285 41.3398 35.6025 36.2496 39.6862C31.8209 35.6121 29.0457 29.7694 29.0457 23.2749C29.0457 16.2435 32.3002 9.96946 37.3856 5.8858C41.8191 9.95987 44.5943 15.8026 44.5943 22.2971Z" fill="#33404F"/>
<path d="M73.64 23.2749C73.64 35.5881 63.6561 45.572 51.3429 45.572C45.5193 45.572 40.223 43.3385 36.2496 39.6862C41.3398 35.6025 44.5943 29.3285 44.5943 22.2971C44.5943 15.8025 41.8191 9.95985 37.3856 5.88578C41.2056 2.81345 46.061 0.977722 51.3429 0.977722C63.6561 0.977722 73.64 10.9616 73.64 23.2749Z" fill="white"/>
</svg>
