<svg width="187" height="151" viewBox="0 0 187 151" fill="none" xmlns="http://www.w3.org/2000/svg">
<path d="M0.511754 65.294C2.94058 68.4314 6.01222 71.072 9.41987 73.0991C12.875 75.1554 16.6881 76.4994 20.5998 77.3833C24.8182 78.3329 29.3837 78.6726 33.3575 76.6602C36.9624 74.8376 39.5811 71.1633 39.866 67.1129C40.1399 63.2487 37.9631 59.1032 34.3728 57.4998C30.2237 55.6444 25.4026 56.8936 22.2068 59.9871C19.263 62.8359 17.7436 66.8937 17.3857 70.9113C17.0424 74.7938 17.9262 78.7785 19.7451 82.2154C23.4194 89.1549 31.4144 93.3003 39.2086 92.5041C40.2203 92.4018 41.2247 92.2411 42.2145 91.9928C43.1422 91.759 43.7886 90.6706 43.4891 89.7466C43.1787 88.7897 42.2364 88.2199 41.2429 88.4719C40.8412 88.5742 40.4358 88.6618 40.0267 88.7349C39.9354 88.7495 39.8441 88.7677 39.7528 88.7824C39.7308 88.786 39.278 88.8627 39.5848 88.8116C39.8879 88.7604 39.4423 88.8298 39.4167 88.8298C39.278 88.8444 39.1428 88.8591 39.004 88.8737C38.1786 88.9467 37.3459 88.965 36.5168 88.9248C36.1004 88.9029 35.6877 88.8664 35.275 88.8225C34.9353 88.786 35.2932 88.8298 35.348 88.8335C35.2348 88.8225 35.1179 88.8006 35.0047 88.7824C34.7782 88.7458 34.5481 88.7057 34.3217 88.6618C33.4817 88.4975 32.6562 88.2783 31.8454 88.0007C31.4838 87.8766 30.9944 87.778 30.6803 87.5588C30.7205 87.588 31.0492 87.7195 30.7351 87.5807C30.6511 87.5442 30.5671 87.504 30.4831 87.4675C30.253 87.3616 30.0229 87.252 29.7964 87.1351C29.0367 86.748 28.3026 86.306 27.605 85.8166C27.4553 85.7107 27.3055 85.6011 27.1558 85.4916C26.7905 85.2249 27.3603 85.6632 27.1411 85.4806C27.0535 85.4076 26.9622 85.3382 26.8709 85.2615C26.5495 84.9985 26.239 84.7209 25.9395 84.4324C25.64 84.1438 25.3478 83.8444 25.0703 83.5339C24.9315 83.3769 24.7927 83.2198 24.6575 83.0591C24.5845 82.9714 24.5114 82.8801 24.4384 82.7888C24.1937 82.4966 24.6283 83.0518 24.3836 82.7194C23.8905 82.0437 23.4303 81.3461 23.0249 80.612C22.8241 80.2468 22.6341 79.8706 22.4588 79.4944C22.4186 79.4104 22.3821 79.3264 22.3419 79.2387C22.3346 79.2241 22.1593 78.8004 22.2689 79.0744C22.3785 79.3446 22.2105 78.921 22.2031 78.9064C22.1593 78.7968 22.1191 78.6909 22.079 78.5813C21.7795 77.7741 21.5348 76.9487 21.3485 76.1086C21.2572 75.6996 21.1805 75.2869 21.1147 74.8741C21.1001 74.7828 21.0819 74.6879 21.0746 74.5966C21.1147 75.0275 21.0965 74.7609 21.0855 74.666C21.06 74.4103 21.0307 74.1583 21.0125 73.9026C20.9467 73.0443 20.9431 72.1824 20.9979 71.3277C21.0125 71.1195 21.0307 70.9113 21.049 70.7031C21.06 70.5972 21.0892 69.9142 21.0782 70.4292C21.0855 70.0055 21.2243 69.5417 21.3193 69.129C21.5092 68.278 21.7649 67.4416 22.0863 66.6308C22.1228 66.5431 22.1557 66.4518 22.1958 66.3641C22.0278 66.7221 22.1484 66.481 22.1812 66.4043C22.2835 66.1888 22.3821 65.9697 22.488 65.7578C22.6816 65.3743 22.8934 64.9982 23.1199 64.6366C23.3427 64.275 23.5801 63.9097 23.8467 63.581C23.5655 63.9244 23.9855 63.424 24.0549 63.3436C24.2266 63.1464 24.4019 62.9565 24.5845 62.7702C24.8657 62.4853 25.1616 62.2114 25.472 61.9594C25.5597 61.89 25.7679 61.6599 25.4939 61.9375C25.5524 61.8754 25.6583 61.8169 25.724 61.7695C25.9176 61.6307 26.1185 61.4992 26.323 61.3787C26.5093 61.2654 26.6992 61.1595 26.8928 61.0609C26.9914 61.0098 27.5904 60.7468 27.185 60.9112C27.616 60.7395 28.0506 60.5934 28.4998 60.4802C28.7117 60.4254 28.9235 60.3816 29.139 60.3414C29.2266 60.3268 29.3326 60.2976 29.4239 60.2939C28.9965 60.3122 29.3289 60.3085 29.4421 60.2976C29.8987 60.2574 30.3552 60.2464 30.8118 60.2756C30.9067 60.2829 31.0017 60.2939 31.0967 60.2976C31.5605 60.3268 30.8227 60.2391 31.1076 60.2976C31.3195 60.3377 31.5313 60.3743 31.7395 60.4254C31.9257 60.4692 32.1084 60.524 32.291 60.5824C32.4042 60.619 32.5138 60.6664 32.627 60.703C32.7512 60.7505 32.7183 60.7358 32.5247 60.6555C32.5905 60.6847 32.6562 60.7139 32.722 60.7431C33.0689 60.9075 33.405 61.1011 33.7227 61.3202C33.7446 61.3348 34.0806 61.5978 33.8505 61.4079C33.6204 61.218 33.9492 61.4955 33.9674 61.5101C34.1318 61.6526 34.2852 61.7987 34.4386 61.9557C34.5591 62.0799 34.676 62.2077 34.7855 62.3392C34.8038 62.3611 35.0522 62.7008 34.8842 62.4598C34.7162 62.215 34.9572 62.5693 34.9718 62.5876C35.1946 62.909 35.3918 63.245 35.5672 63.5956C35.6146 63.6943 35.6585 63.7929 35.7059 63.8915C35.8301 64.1362 35.5525 63.4715 35.6986 63.8769C35.7571 64.0412 35.8192 64.2019 35.874 64.3699C36.0091 64.7863 36.1004 65.21 36.1807 65.641C36.2136 65.809 36.1296 65.8528 36.1698 65.546C36.1625 65.6154 36.1881 65.7323 36.1954 65.8053C36.2136 66.0026 36.2209 66.1961 36.2246 66.3934C36.2282 66.5906 36.2246 66.7842 36.2136 66.9814C36.21 67.069 36.2027 67.1567 36.1954 67.2407C36.1881 67.3284 36.1808 67.416 36.1698 67.5C36.1808 67.4233 36.1881 67.3503 36.199 67.2736C36.2538 67.6096 36.0274 68.1392 35.9287 68.4642C35.8703 68.6578 35.8046 68.8514 35.7352 69.0413C35.695 69.1472 35.611 69.4504 35.7425 69.045C35.7023 69.1728 35.6292 69.297 35.5745 69.4139C35.4064 69.7608 35.2165 70.0932 35.012 70.4183C34.9024 70.5899 34.7855 70.7579 34.6687 70.9223C34.4568 71.2218 34.7052 70.8967 34.7088 70.8785C34.7015 70.9405 34.4897 71.1451 34.4495 71.1926C34.1829 71.503 33.898 71.7989 33.5985 72.0764C33.4634 72.2006 33.3283 72.3211 33.1895 72.438C33.1749 72.449 32.8279 72.7339 33.0543 72.5512C33.2625 72.3869 32.8973 72.6645 32.8534 72.6937C32.5174 72.9311 32.1705 73.1466 31.8125 73.3438C31.6336 73.4424 31.4509 73.5337 31.2647 73.6214C31.1734 73.6652 31.0784 73.7054 30.9871 73.7456C31.3742 73.5666 30.9177 73.7675 30.8629 73.7894C30.4392 73.9464 30.0083 74.0779 29.5663 74.1838C29.3727 74.2313 29.1755 74.2752 28.9783 74.3117C28.8541 74.3336 28.7299 74.3555 28.6057 74.3774C28.5327 74.3884 28.456 74.403 28.383 74.4103C28.5948 74.3811 28.6313 74.3774 28.4925 74.392C27.5502 74.4724 26.6189 74.5162 25.6692 74.4687C25.2054 74.4432 24.7415 74.403 24.2813 74.3519C24.1791 74.3409 24.0768 74.3263 23.9745 74.3153C24.358 74.3628 24.0768 74.3299 24.0001 74.3153C23.7444 74.2752 23.4888 74.235 23.2331 74.1912C21.3996 73.8697 19.5844 73.4022 17.8057 72.8544C16.9474 72.5914 16.0964 72.2883 15.2637 71.9523C15.1504 71.9084 15.0372 71.8609 14.9276 71.8135C14.9861 71.839 15.2746 71.9632 14.9605 71.8281C14.7596 71.7404 14.5587 71.6528 14.3615 71.5614C13.9415 71.3715 13.5251 71.1706 13.1124 70.9588C11.509 70.1443 9.97503 69.1947 8.53235 68.1173C8.44104 68.0479 8.01006 67.7119 8.32416 67.9602C8.13424 67.8105 7.94432 67.6571 7.75439 67.5037C7.41838 67.2261 7.08601 66.9412 6.76095 66.649C6.07431 66.0318 5.41323 65.3853 4.78867 64.706C4.19334 64.0631 3.63087 63.3948 3.09398 62.7008C2.50594 61.9411 1.1217 62.0361 0.511754 62.7008C-0.226024 63.5153 -0.112801 64.4832 0.511754 65.294Z" fill="#33404F"/>
<path d="M178.422 67.92H163.864C161.46 62.2443 157.983 57.0141 153.659 52.4084V14.99C139.974 14.99 128.147 22.9485 122.556 34.4899C116.931 33.0655 110.981 32.2949 104.823 32.2949C70.1112 32.2949 41.9697 56.5941 41.9697 86.569C41.9697 101.701 49.143 115.383 60.71 125.226V148.005H85.8894V138.334C91.8647 139.963 98.2234 140.843 104.823 140.843C111.423 140.843 117.782 139.963 123.757 138.334V147.454H148.937V125.222C155.493 119.641 160.642 112.83 163.867 105.218H178.426C182.056 105.218 185 102.274 185 98.6437V74.4907C184.996 70.8602 182.053 67.92 178.422 67.92Z" fill="white" stroke="#33404F" stroke-width="4" stroke-miterlimit="10"/>
<path d="M137.483 74.655C139.683 74.655 141.467 72.871 141.467 70.6703C141.467 68.4696 139.683 66.6855 137.483 66.6855C135.282 66.6855 133.498 68.4696 133.498 70.6703C133.498 72.871 135.282 74.655 137.483 74.655Z" fill="#33404F"/>
<path d="M137.483 97.3873C143.314 97.3873 148.042 94.9656 148.042 91.9782C148.042 88.9908 143.314 86.569 137.483 86.569C131.651 86.569 126.924 88.9908 126.924 91.9782C126.924 94.9656 131.651 97.3873 137.483 97.3873Z" fill="#00DDA3"/>
<path d="M84.6805 50.1769C97.5332 43.7998 109.718 44.1176 121.328 50.1769" stroke="#33404F" stroke-width="4" stroke-miterlimit="10" stroke-linecap="round"/>
<path d="M103.004 37.7786C112.884 37.7786 120.894 29.7693 120.894 19.8893C120.894 10.0093 112.884 2 103.004 2C93.1244 2 85.1151 10.0093 85.1151 19.8893C85.1151 29.7693 93.1244 37.7786 103.004 37.7786Z" fill="#00DDA3" stroke="#33404F" stroke-width="4" stroke-miterlimit="10"/>
<path d="M103.004 29.4877C108.305 29.4877 112.603 25.1903 112.603 19.8893C112.603 14.5882 108.305 10.2909 103.004 10.2909C97.7034 10.2909 93.406 14.5882 93.406 19.8893C93.406 25.1903 97.7034 29.4877 103.004 29.4877Z" fill="#00DDA3" stroke="#33404F" stroke-width="4" stroke-miterlimit="10"/>
<path d="M79.3116 134.166H44.8478C44.0407 134.166 43.3869 133.512 43.3869 132.705V128.72C43.3869 127.913 44.0407 127.259 44.8478 127.259H79.3116C80.1187 127.259 80.7725 127.913 80.7725 128.72V132.705C80.7725 133.512 80.1151 134.166 79.3116 134.166Z" fill="#33404F"/>
<path d="M67.8066 142.314H33.3428C32.5357 142.314 31.8819 141.661 31.8819 140.853V136.869C31.8819 136.061 32.5357 135.408 33.3428 135.408H67.8066C68.6137 135.408 69.2675 136.061 69.2675 136.869V140.853C69.2675 141.661 68.6137 142.314 67.8066 142.314Z" fill="#00DDA3" stroke="#33404F" stroke-width="4" stroke-miterlimit="10"/>
<path d="M79.3116 150.463H44.8478C44.0407 150.463 43.3869 149.809 43.3869 149.002V145.017C43.3869 144.21 44.0407 143.556 44.8478 143.556H79.3116C80.1187 143.556 80.7725 144.21 80.7725 145.017V149.002C80.7725 149.809 80.1151 150.463 79.3116 150.463Z" fill="#33404F"/>
</svg>
