<svg width="750" height="355" viewBox="0 0 750 355" fill="none" xmlns="http://www.w3.org/2000/svg">
<path d="M75.8848 316.316C76.1191 320.096 79.2686 322.513 83.9561 322.513C88.9658 322.513 92.1006 319.979 92.1006 315.936C92.1006 312.757 90.3135 310.999 85.9775 309.988L83.6484 309.417C80.8945 308.772 79.7812 307.908 79.7812 306.399C79.7812 304.495 81.5098 303.25 84.1025 303.25C86.5635 303.25 88.2627 304.466 88.5703 306.414H91.7637C91.5732 302.854 88.4385 300.35 84.1465 300.35C79.5322 300.35 76.4561 302.854 76.4561 306.619C76.4561 309.725 78.1992 311.57 82.0225 312.464L84.7471 313.123C87.5449 313.782 88.7754 314.749 88.7754 316.36C88.7754 318.235 86.8418 319.598 84.2051 319.598C81.3779 319.598 79.415 318.323 79.1367 316.316H75.8848Z" fill="#33404F"/>
<path d="M191.527 322V300.862H187.689L180.951 316.917H180.702L173.978 300.862H170.14V322H173.187V306.736H173.392L179.588 321.385H182.078L188.275 306.736H188.48V322H191.527Z" fill="#33404F"/>
<path d="M279.307 322V303.851H285.943V300.862H269.376V303.851H276.026V322H279.307Z" fill="#33404F"/>
<path d="M374.883 303.487H375.088L379.629 319H382.72L388.433 297.862H385.02L381.152 314.049H380.947L376.509 297.862H373.462L369.053 314.049H368.848L364.966 297.862H361.553L367.251 319H370.356L374.883 303.487Z" fill="#33404F"/>
<path d="M473.974 322V303.851H480.61V300.862H464.042V303.851H470.693V322H473.974Z" fill="#33404F"/>
<path d="M565.869 322V313.24H574.951V310.34H565.869V303.851H575.786V300.862H562.588V322H565.869Z" fill="#33404F"/>
<path d="M657.885 316.316C658.119 320.096 661.269 322.513 665.956 322.513C670.966 322.513 674.101 319.979 674.101 315.936C674.101 312.757 672.313 310.999 667.978 309.988L665.648 309.417C662.895 308.772 661.781 307.908 661.781 306.399C661.781 304.495 663.51 303.25 666.103 303.25C668.563 303.25 670.263 304.466 670.57 306.414H673.764C673.573 302.854 670.438 300.35 666.146 300.35C661.532 300.35 658.456 302.854 658.456 306.619C658.456 309.725 660.199 311.57 664.022 312.464L666.747 313.123C669.545 313.782 670.775 314.749 670.775 316.36C670.775 318.235 668.842 319.598 666.205 319.598C663.378 319.598 661.415 318.323 661.137 316.316H657.885Z" fill="#33404F"/>
<path d="M64 226.303C75.8333 182.137 117.2 109.403 188 171.803C276.5 249.803 306.5 185.803 327 139.303C347.5 92.8032 402.5 17.8032 463.5 102.303C524.5 186.803 567 166.303 591.5 122.803C616 79.3032 652.5 92.8032 682.5 102.303" stroke="#33404F" stroke-width="3" stroke-linecap="round" stroke-dasharray="10 10"/>
<path d="M62.5 227.5C70.1667 171.667 105.7 74.4 186.5 132C287.5 204 332.5 189 355.5 155C378.5 121 426 48.0001 495.5 94.0001C565 140 582.5 101.5 599 76C615.5 50.5 630.5 42 674 68" stroke="#00DDA3" stroke-width="3" stroke-linecap="round" stroke-dasharray="10 10"/>
<circle cx="401" cy="65" r="13" fill="#33404F"/>
<circle cx="628" cy="53" r="13" fill="#00DDA3"/>
<path d="M365.477 41.9922V40.0732C369.769 39.707 372.244 37.4658 372.244 33.877C372.244 30.8447 370.516 28.9844 366.839 28.0908L365.477 27.7832V21.4697C367.41 21.7041 368.729 22.9639 368.787 24.5752H371.849C371.761 21.3086 369.271 18.9941 365.477 18.6572V16.6357H363.47V18.6572C359.515 19.0234 357.112 21.2646 357.112 24.6484C357.112 27.5049 358.899 29.4678 362.166 30.3027L363.47 30.6396V37.3193C361.287 37.0703 359.881 35.8545 359.734 34.1113H356.629C356.644 37.5098 359.28 39.8096 363.47 40.0879V41.9922H365.477ZM369.124 34.2139C369.124 36.0742 367.791 37.2168 365.477 37.3486V31.0205C367.967 31.5186 369.124 32.5293 369.124 34.2139ZM360.247 24.3848C360.247 22.7881 361.595 21.5576 363.47 21.4551V27.3584C361.36 26.9336 360.247 25.8936 360.247 24.3848ZM381.751 40H385.032V18.8623H381.766L376.199 22.7881V26.1426L381.502 22.3926H381.751V40ZM392.078 40H395.521L404.72 21.8359V18.8623H390.32V21.7773H401.395V22.0117L392.078 40ZM416.731 40H419.896V35.9131H422.811V32.9834H419.896V18.8623H415.223C411.458 24.502 408.309 29.4092 406.419 32.8662V35.9131H416.731V40ZM409.568 32.8516C412.059 28.5303 414.49 24.7803 416.585 21.748H416.775V33.0566H409.568V32.8516Z" fill="#33404F"/>
<path d="M601.424 30.9922V29.0732C605.716 28.707 608.191 26.4658 608.191 22.877C608.191 19.8447 606.463 17.9844 602.786 17.0908L601.424 16.7832V10.4697C603.357 10.7041 604.676 11.9639 604.734 13.5752H607.796C607.708 10.3086 605.218 7.99414 601.424 7.65723V5.63574H599.417V7.65723C595.462 8.02344 593.06 10.2646 593.06 13.6484C593.06 16.5049 594.847 18.4678 598.113 19.3027L599.417 19.6396V26.3193C597.234 26.0703 595.828 24.8545 595.682 23.1113H592.576C592.591 26.5098 595.228 28.8096 599.417 29.0879V30.9922H601.424ZM605.071 23.2139C605.071 25.0742 603.738 26.2168 601.424 26.3486V20.0205C603.914 20.5186 605.071 21.5293 605.071 23.2139ZM596.194 13.3848C596.194 11.7881 597.542 10.5576 599.417 10.4551V16.3584C597.308 15.9336 596.194 14.8936 596.194 13.3848ZM622.356 29H625.521V24.9131H628.436V21.9834H625.521V7.8623H620.848C617.083 13.502 613.934 18.4092 612.044 21.8662V24.9131H622.356V29ZM615.193 21.8516C617.684 17.5303 620.115 13.7803 622.21 10.748H622.4V22.0566H615.193V21.8516ZM639.759 29.5127C644.314 29.5127 647.405 26.5391 647.405 22.1592C647.405 17.999 644.578 15.0693 640.564 15.0693C638.558 15.0693 637.063 15.7432 636.097 16.9883H635.848L636.404 10.792H646.175V7.8623H633.841L632.728 19.9619H635.73C636.551 18.5996 638.016 17.7939 639.832 17.7939C642.41 17.7939 644.197 19.5957 644.197 22.2471C644.197 24.8838 642.425 26.627 639.788 26.627C637.474 26.627 635.76 25.2646 635.511 23.2139H632.391C632.581 26.9199 635.555 29.5127 639.759 29.5127ZM656.429 29H659.71V7.8623H656.443L650.877 11.7881V15.1426L656.18 11.3926H656.429V29Z" fill="#00DDA3"/>
</svg>
