<svg width="100" height="32" viewBox="0 0 100 32" fill="none" xmlns="http://www.w3.org/2000/svg">
<path d="M39.902 0.927124L34.8374 30.648H42.9374L48.0062 0.927124H39.902Z" fill="white"/>
<path d="M28.046 0.960413L20.1127 21.2292L19.2669 18.1687C17.7023 14.4812 13.2606 9.18541 8.04602 5.84791L15.3002 30.6333L23.871 30.6187L36.6273 0.954163L28.046 0.960413Z" fill="white"/>
<path d="M16.1917 3.0875C15.7208 1.27708 14.3563 0.737496 12.6625 0.672913H0.104167L0 1.26458C9.77292 3.63541 16.2396 9.34791 18.9229 16.2167L16.1917 3.0875Z" fill="white"/>
<path d="M64.4229 6.62502C67.0729 6.58335 68.9937 7.16252 70.4854 7.76252L71.2166 8.10627L72.3125 1.6646C70.7083 1.06252 68.1937 0.416687 65.0562 0.416687C57.0521 0.416687 51.4104 4.44793 51.3666 10.225C51.3146 14.4938 55.3854 16.8771 58.4604 18.3C61.6166 19.7584 62.675 20.6854 62.6604 21.9875C62.6354 23.9771 60.1437 24.8896 57.8166 24.8896C54.5729 24.8896 52.85 24.4417 50.1896 23.3334L49.1458 22.8584L48.0062 29.5104C49.9021 30.3417 53.4 31.0563 57.0312 31.0938C65.5458 31.0938 71.0791 27.1104 71.1375 20.9375C71.1729 17.5604 69.0125 14.9834 64.3312 12.8688C61.4979 11.4896 59.7646 10.5729 59.7812 9.18127C59.7812 7.94585 61.2521 6.62502 64.4229 6.62502Z" fill="white"/>
<path d="M93.1001 0.960449H86.8418C84.898 0.960449 83.4522 1.48962 82.598 3.42712L70.5709 30.6646H79.0772C79.0772 30.6646 80.4647 27.0021 80.7793 26.2C81.7105 26.2 89.9751 26.2125 91.1522 26.2125C91.3938 27.25 92.1397 30.6646 92.1397 30.6646H99.6543L93.1001 0.960449ZM83.1105 20.1167C83.7772 18.4104 86.3376 11.8105 86.3376 11.8105C86.2938 11.8917 86.998 10.0917 87.4168 8.97295L87.9626 11.5355C87.9626 11.5355 89.5147 18.6313 89.8397 20.1167H83.1105Z" fill="white"/>
</svg>
